<?xml version="1.0" encoding="UTF-8"?>
<svg xmlns="http://www.w3.org/2000/svg" xmlns:xlink="http://www.w3.org/1999/xlink" version="1.1" width="512" height="512" x="0" y="0" viewBox="0 0 32 32" style="enable-background:new 0 0 512 512" xml:space="preserve" class="">
  <g>
    <path d="M11.216 24H9a1 1 0 0 0-.707.293L6.586 26h-.864c-.347-.595-.985-1-1.722-1-1.103 0-2 .897-2 2s.897 2 2 2c.737 0 1.375-.405 1.722-1H7a1 1 0 0 0 .707-.293L9.414 26h4.329a8.772 8.772 0 0 1-2.144-1.567c-.137-.137-.256-.288-.383-.433zM4 24c.737 0 1.375-.405 1.722-1h4.73a8.813 8.813 0 0 1-.976-2H5.722c-.347-.595-.985-1-1.722-1-1.103 0-2 .897-2 2s.897 2 2 2zM4 19c.737 0 1.375-.405 1.722-1h.864l1.707 1.707A1 1 0 0 0 9 20h.203a8.762 8.762 0 0 1-.18-2.391l-1.316-1.316A1 1 0 0 0 7 16H5.722c-.347-.595-.985-1-1.722-1-1.103 0-2 .897-2 2s.897 2 2 2zM25.772 20.07l.164-1.138a7.86 7.86 0 0 0-2.229-6.644 7.838 7.838 0 0 0-7.053-2.136 1 1 0 0 0-.51 1.687l3.22 3.22-.194 1.346a3.275 3.275 0 0 1-2.764 2.766l-1.346.192-3.22-3.22a1.001 1.001 0 0 0-1.688.511 7.805 7.805 0 0 0 2.154 7.072 7.813 7.813 0 0 0 6.627 2.209l1.137-.163 3.935 3.935a.997.997 0 0 0 1.414 0l4.288-4.288a1 1 0 0 0 0-1.414zM27 2v3h3z" fill="#ffffff" opacity="1" data-original="#000000"/>
    <path d="M26 5V2h-8a1 1 0 0 0-1 1v6.09c.389-.052.78-.089 1.173-.089 1.42 0 2.819.354 4.067.999h5.26a.5.5 0 1 1 0 1h-3.728c.223.182.438.376.642.58.434.434.808.914 1.139 1.42H27.5a.5.5 0 1 1 0 1h-1.377c.308.638.542 1.309.69 2h.687a.5.5 0 1 1 0 1h-.53a8.715 8.715 0 0 1-.038 2H29a1 1 0 0 0 1-1V6h-3a1 1 0 0 1-1-1zm2 2.5a.5.5 0 0 1-.5.5h-8a.5.5 0 1 1 0-1h8a.5.5 0 0 1 .5.5z" fill="#ffffff" opacity="1" data-original="#000000"/>
  </g>
</svg>
