<?xml version="1.0" encoding="UTF-8"?>
<svg xmlns="http://www.w3.org/2000/svg" xmlns:xlink="http://www.w3.org/1999/xlink" version="1.1" width="512" height="512" x="0" y="0" viewBox="0 0 206.066 302.509" style="enable-background:new 0 0 512 512" xml:space="preserve" class="">
  <g>
    <path d="m106.534 200.066 7.429 91.084c.555 6.808 6.523 11.872 13.328 11.318 6.805-.555 11.873-6.52 11.319-13.327l-8.53-104.592v-31.12l25.792 49.406a8 8 0 1 0 14.184-7.404L131 120.623a7.994 7.994 0 0 0-7.336-4.286 7.748 7.748 0 0 0-1.314-.12H83.716c-.45 0-.887.046-1.315.12a7.992 7.992 0 0 0-7.335 4.286L36.01 195.431a8 8 0 0 0 3.39 10.793 8 8 0 0 0 10.794-3.39l25.793-49.404v31.12l-8.53 104.59c-.555 6.808 4.514 12.773 11.318 13.328 6.805.554 12.774-4.51 13.328-11.318l7.43-91.084h7.001z" fill="#ffffff" opacity="1" data-original="#000000" class=""/>
    <circle cx="103.033" cy="88.019" r="22.5" fill="#ffffff" opacity="1" data-original="#000000" class=""/>
    <path d="M42.51 124.738h7.266V83.702h11.547l-15.18-25.349-15.18 25.349H42.51zM42.51 137.371h7.266v6.606H42.51zM42.51 127.766h7.266v4.651H42.51zM11.547 210.114h7.266v4.651h-7.266zM11.547 219.72h7.266v6.606h-7.266zM30.36 166.05l-15.18-25.348L0 166.05h11.547v41.037h7.266V166.05zM156.29 137.371h7.266v6.606h-7.266zM156.29 127.766h7.266v4.651h-7.266zM144.743 83.702h11.547v41.036h7.266V83.702h11.547l-15.18-25.349zM187.254 210.114h7.266v4.651h-7.266zM187.254 219.72h7.266v6.606h-7.266zM206.066 166.05l-15.18-25.348-15.18 25.348h11.547v41.037h7.266V166.05zM114.021 22.451h.36c.666-7.992 3.054-10.38 11.046-11.045v-.361c-7.992-.665-10.38-3.052-11.045-11.045h-.36c-.666 7.993-3.053 10.38-11.046 11.045v.361c7.993.665 10.38 3.053 11.045 11.045zM129.387 62.706h.31c.572-6.865 2.622-8.916 9.487-9.487v-.31c-6.865-.571-8.915-2.622-9.487-9.487h-.31c-.571 6.865-2.622 8.916-9.487 9.487v.31c6.865.571 8.916 2.622 9.487 9.487zM179.912 114.63v.416c9.18.764 11.92 3.505 12.685 12.685h.414c.765-9.18 3.506-11.921 12.685-12.685v-.415c-9.179-.763-11.92-3.506-12.685-12.685h-.414c-.764 9.18-3.506 11.922-12.685 12.685zM11.996 121.754c.666-7.993 3.053-10.38 11.046-11.045v-.361c-7.993-.665-10.38-3.053-11.046-11.045h-.36c-.665 7.992-3.053 10.38-11.045 11.045v.36c7.992.666 10.38 3.053 11.045 11.046zM68.706 48.376h-.31c-.571 6.865-2.622 8.916-9.487 9.487v.31c6.865.571 8.916 2.622 9.488 9.487h.309c.572-6.865 2.622-8.916 9.487-9.487v-.31c-6.865-.571-8.915-2.622-9.487-9.487zM97.231 25.653h-.413c-.765 9.179-3.507 11.921-12.686 12.684v.415c9.18.764 11.921 3.506 12.686 12.685h.413c.765-9.18 3.506-11.92 12.686-12.685v-.415c-9.18-.763-11.921-3.505-12.686-12.684zM46.927 241.294h.36c.666-7.992 3.053-10.38 11.045-11.045v-.361c-7.992-.665-10.38-3.052-11.045-11.045h-.36c-.666 7.993-3.053 10.38-11.046 11.045v.361c7.993.665 10.38 3.053 11.046 11.045zM36.314 46.916c-7.992-.665-10.38-3.053-11.045-11.045h-.36c-.666 7.992-3.053 10.38-11.046 11.044v.362c7.993.665 10.38 3.052 11.045 11.045h.36c.666-7.993 3.054-10.38 11.046-11.045zM181.159 39.834h-.36c-.666 7.992-3.053 10.38-11.046 11.045v.361c7.993.665 10.38 3.052 11.045 11.045h.36c.666-7.992 3.054-10.38 11.046-11.045v-.361c-7.993-.665-10.38-3.053-11.045-11.045zM192.388 247.467h-.36c-.666 7.992-3.053 10.38-11.046 11.045v.361c7.993.665 10.38 3.053 11.046 11.045h.36c.665-7.992 3.053-10.38 11.045-11.045v-.361c-7.992-.665-10.38-3.052-11.045-11.045zM165.782 266.36v-.362c-7.993-.665-10.38-3.052-11.045-11.045h-.36c-.666 7.993-3.054 10.38-11.046 11.045v.361c7.992.665 10.38 3.053 11.045 11.045h.36c.666-7.992 3.053-10.38 11.046-11.045zM11.697 267.716h.36c.666-7.992 3.054-10.38 11.046-11.045v-.361c-7.993-.665-10.38-3.052-11.045-11.045h-.36c-.666 7.993-3.054 10.38-11.046 11.045v.361c7.993.665 10.38 3.053 11.045 11.045zM44.285 284.45h.36c.665-7.992 3.053-10.38 11.045-11.045v-.361c-7.992-.665-10.38-3.052-11.045-11.045h-.36c-.666 7.993-3.053 10.38-11.046 11.045v.361c7.993.665 10.38 3.053 11.046 11.045zM176.35 235.093v-.361c-7.992-.665-10.38-3.052-11.045-11.045h-.36c-.665 7.993-3.053 10.38-11.045 11.045v.361c7.992.665 10.38 3.053 11.045 11.045h.36c.666-7.992 3.053-10.38 11.046-11.045z" fill="#ffffff" opacity="1" data-original="#000000" class=""/>
  </g>
</svg>
