<?xml version="1.0" encoding="UTF-8"?>
<svg xmlns="http://www.w3.org/2000/svg" xmlns:xlink="http://www.w3.org/1999/xlink" version="1.1" width="512" height="512" x="0" y="0" viewBox="0 0 365.725 365.725" style="enable-background:new 0 0 512 512" xml:space="preserve" class="">
  <g>
    <path d="M357.29 315.48c-.11-.111-.22-.222-.331-.331l-14.08-13.76-25.68-25.84-19.04-19.04 16.88-16.88a8 8 0 0 0 0-11.28l-18.24-18.24a8 8 0 0 0-11.28 0l-6.56 6.56-26.96-30.16 106.88-95.68a8.002 8.002 0 0 0 2.64-5.6l3.84-76.72a8 8 0 0 0-2.32-6.08 8 8 0 0 0-6.08-2.32l-76.72 3.76a8.002 8.002 0 0 0-5.6 2.64l-91.76 102.88L90.959 6.748a8.002 8.002 0 0 0-5.6-2.64L8.639.348a8 8 0 0 0-6.08 2.32 8 8 0 0 0-2.32 6.08l3.84 76.72a8.002 8.002 0 0 0 2.64 5.6l107.04 96-26.88 29.68-6.56-6.56a8 8 0 0 0-11.28 0l-18.24 18.24a8 8 0 0 0 0 11.28l16.88 16.88-19.12 18.96-40 40c-11.443 11.488-11.407 30.078.081 41.521a29.365 29.365 0 0 0 20.639 8.559 29.122 29.122 0 0 0 20.72-8.56l58.72-58.72 16.88 16.88a8 8 0 0 0 11.28 0l18.24-18.24a8 8 0 0 0 0-11.28l-6.24-6.96 34-30.32 34 30.32-6.56 6.56a8 8 0 0 0 0 11.28l18.24 18.24a8 8 0 0 0 11.28 0l16.88-16.88 19.04 19.04 25.76 25.76 13.92 13.92c11.374 11.557 29.963 11.705 41.52.331 11.557-11.373 11.705-29.963.331-41.519zm-89.851-87.452-14.08 14.08-30.08-30.08 16.56-14.8 27.6 30.8zm-248-146.96-3.2-64.56 64.56 3.2 90.88 101.6-18.56 20.72-33.6-33.6a8 8 0 0 0-11.28 11.28l34.64 34.32-18.4 20.72-105.04-93.68zm19.12 264a13.28 13.28 0 0 1-9.44 3.92c-7.358-.546-12.881-6.954-12.334-14.312a13.361 13.361 0 0 1 3.374-7.928l8-8 18.72 18.48-8.32 7.84zm19.52-19.52-18.4-18.48 14.48-14.48 18.88 18.88-14.96 14.08zm25.84-25.84-18.88-18.88 13.84-12.96 18.88 18.88-13.84 12.96zm47.2-2.16-16.8-16.8-30.16-30.16-16.48-16.56 6.88-6.88 64 64-7.44 6.4zm6-30.48-14.08-14.08 133.6-133.6a8 8 0 1 0-11.28-11.28l-133.6 133.6-14.08-14.08 32.8-36.64 154.08-171.2 64.56-3.2-3.2 64.56-110.56 98.8-98.24 87.12zm57.28-29.84 17.2-14.48 30.64 30.64-14.08 14.08-33.76-30.24zm56 43.44-16.24 17.28-6.88-6.88 64-64 6.88 6.88-16.88 16.88-30.88 29.84zm16.96 5.68 19.52-18.48 13.36 13.36-18.88 18.88-14-13.76zm39.2 39.2-14.48-14.48 18.88-18.88 14.48 14.48-18.88 18.88zm39.04 19.92-.64-.4c-5.285 5.039-13.595 5.039-18.88 0l-8-8 19.28-18.32 8 8c5.17 5.131 5.276 13.458.24 18.72z" fill="#ffffff" opacity="1" data-original="#000000" class=""/>
  </g>
</svg>
